<svg id="visual" viewBox="0 0 960 300" width="960" height="300" xmlns="http://www.w3.org/2000/svg" xmlns:xlink="http://www.w3.org/1999/xlink" version="1.1"><rect x="0" y="0" width="960" height="300" fill="#dd3f31"></rect><path d="M0 176L22.8 182.2C45.7 188.3 91.3 200.7 137 201.7C182.7 202.7 228.3 192.3 274 192.8C319.7 193.3 365.3 204.7 411.2 208.3C457 212 503 208 548.8 202.2C594.7 196.3 640.3 188.7 686 190.2C731.7 191.7 777.3 202.3 823 205.7C868.7 209 914.3 205 937.2 203L960 201L960 301L937.2 301C914.3 301 868.7 301 823 301C777.3 301 731.7 301 686 301C640.3 301 594.7 301 548.8 301C503 301 457 301 411.2 301C365.3 301 319.7 301 274 301C228.3 301 182.7 301 137 301C91.3 301 45.7 301 22.8 301L0 301Z" fill="#e490b2"></path><path d="M0 201L22.8 207.2C45.7 213.3 91.3 225.7 137 229.2C182.7 232.7 228.3 227.3 274 222.7C319.7 218 365.3 214 411.2 215.3C457 216.7 503 223.3 548.8 222.7C594.7 222 640.3 214 686 212.8C731.7 211.7 777.3 217.3 823 217.3C868.7 217.3 914.3 211.7 937.2 208.8L960 206L960 301L937.2 301C914.3 301 868.7 301 823 301C777.3 301 731.7 301 686 301C640.3 301 594.7 301 548.8 301C503 301 457 301 411.2 301C365.3 301 319.7 301 274 301C228.3 301 182.7 301 137 301C91.3 301 45.7 301 22.8 301L0 301Z" fill="#ed7aa4"></path><path d="M0 244L22.8 242.2C45.7 240.3 91.3 236.7 137 235.5C182.7 234.3 228.3 235.7 274 238.5C319.7 241.3 365.3 245.7 411.2 246.7C457 247.7 503 245.3 548.8 243C594.7 240.7 640.3 238.3 686 238.2C731.7 238 777.3 240 823 242.2C868.7 244.3 914.3 246.7 937.2 247.8L960 249L960 301L937.2 301C914.3 301 868.7 301 823 301C777.3 301 731.7 301 686 301C640.3 301 594.7 301 548.8 301C503 301 457 301 411.2 301C365.3 301 319.7 301 274 301C228.3 301 182.7 301 137 301C91.3 301 45.7 301 22.8 301L0 301Z" fill="#f56192"></path><path d="M0 242L22.8 243.2C45.7 244.3 91.3 246.7 137 251.3C182.7 256 228.3 263 274 262.8C319.7 262.7 365.3 255.3 411.2 250.7C457 246 503 244 548.8 243.7C594.7 243.3 640.3 244.7 686 246.7C731.7 248.7 777.3 251.3 823 253C868.7 254.7 914.3 255.3 937.2 255.7L960 256L960 301L937.2 301C914.3 301 868.7 301 823 301C777.3 301 731.7 301 686 301C640.3 301 594.7 301 548.8 301C503 301 457 301 411.2 301C365.3 301 319.7 301 274 301C228.3 301 182.7 301 137 301C91.3 301 45.7 301 22.8 301L0 301Z" fill="#fb427d"></path><path d="M0 264L22.8 265.8C45.7 267.7 91.3 271.3 137 274.7C182.7 278 228.3 281 274 282.5C319.7 284 365.3 284 411.2 280.8C457 277.7 503 271.3 548.8 268.2C594.7 265 640.3 265 686 265C731.7 265 777.3 265 823 265.5C868.7 266 914.3 267 937.2 267.5L960 268L960 301L937.2 301C914.3 301 868.7 301 823 301C777.3 301 731.7 301 686 301C640.3 301 594.7 301 548.8 301C503 301 457 301 411.2 301C365.3 301 319.7 301 274 301C228.3 301 182.7 301 137 301C91.3 301 45.7 301 22.8 301L0 301Z" fill="#ff0066"></path></svg>