<svg id="visual" viewBox="0 0 960 300" width="960" height="300" xmlns="http://www.w3.org/2000/svg" xmlns:xlink="http://www.w3.org/1999/xlink" version="1.1"><rect x="0" y="0" width="960" height="300" fill="#202731"></rect><path d="M0 83L16 85.7C32 88.3 64 93.7 96 92.3C128 91 160 83 192 79.3C224 75.7 256 76.3 288 85.2C320 94 352 111 384 120.2C416 129.3 448 130.7 480 124C512 117.3 544 102.7 576 92.8C608 83 640 78 672 84.3C704 90.7 736 108.3 768 116C800 123.7 832 121.3 864 124.2C896 127 928 135 944 139L960 143L960 0L944 0C928 0 896 0 864 0C832 0 800 0 768 0C736 0 704 0 672 0C640 0 608 0 576 0C544 0 512 0 480 0C448 0 416 0 384 0C352 0 320 0 288 0C256 0 224 0 192 0C160 0 128 0 96 0C64 0 32 0 16 0L0 0Z" fill="#f46f2a"></path><path d="M0 111L16 107.2C32 103.3 64 95.7 96 88.5C128 81.3 160 74.7 192 72C224 69.3 256 70.7 288 76.3C320 82 352 92 384 94.2C416 96.3 448 90.7 480 86.2C512 81.7 544 78.3 576 75.2C608 72 640 69 672 73.5C704 78 736 90 768 92.3C800 94.7 832 87.3 864 82.7C896 78 928 76 944 75L960 74L960 0L944 0C928 0 896 0 864 0C832 0 800 0 768 0C736 0 704 0 672 0C640 0 608 0 576 0C544 0 512 0 480 0C448 0 416 0 384 0C352 0 320 0 288 0C256 0 224 0 192 0C160 0 128 0 96 0C64 0 32 0 16 0L0 0Z" fill="#ef642b"></path><path d="M0 74L16 75.2C32 76.3 64 78.7 96 75C128 71.3 160 61.7 192 59C224 56.3 256 60.7 288 66.8C320 73 352 81 384 79.8C416 78.7 448 68.3 480 65.8C512 63.3 544 68.7 576 71.3C608 74 640 74 672 72.7C704 71.3 736 68.7 768 68C800 67.3 832 68.7 864 66C896 63.3 928 56.7 944 53.3L960 50L960 0L944 0C928 0 896 0 864 0C832 0 800 0 768 0C736 0 704 0 672 0C640 0 608 0 576 0C544 0 512 0 480 0C448 0 416 0 384 0C352 0 320 0 288 0C256 0 224 0 192 0C160 0 128 0 96 0C64 0 32 0 16 0L0 0Z" fill="#e9582d"></path><path d="M0 63L16 60.7C32 58.3 64 53.7 96 53.7C128 53.7 160 58.3 192 60C224 61.7 256 60.3 288 59.8C320 59.3 352 59.7 384 59.7C416 59.7 448 59.3 480 59.3C512 59.3 544 59.7 576 59C608 58.3 640 56.7 672 53.7C704 50.7 736 46.3 768 46.5C800 46.7 832 51.3 864 52C896 52.7 928 49.3 944 47.7L960 46L960 0L944 0C928 0 896 0 864 0C832 0 800 0 768 0C736 0 704 0 672 0C640 0 608 0 576 0C544 0 512 0 480 0C448 0 416 0 384 0C352 0 320 0 288 0C256 0 224 0 192 0C160 0 128 0 96 0C64 0 32 0 16 0L0 0Z" fill="#e34c2f"></path><path d="M0 32L16 29.3C32 26.7 64 21.3 96 22.8C128 24.3 160 32.7 192 34C224 35.3 256 29.7 288 27.5C320 25.3 352 26.7 384 25.7C416 24.7 448 21.3 480 23.3C512 25.3 544 32.7 576 33.7C608 34.7 640 29.3 672 25.3C704 21.3 736 18.7 768 21.7C800 24.7 832 33.3 864 36.5C896 39.7 928 37.3 944 36.2L960 35L960 0L944 0C928 0 896 0 864 0C832 0 800 0 768 0C736 0 704 0 672 0C640 0 608 0 576 0C544 0 512 0 480 0C448 0 416 0 384 0C352 0 320 0 288 0C256 0 224 0 192 0C160 0 128 0 96 0C64 0 32 0 16 0L0 0Z" fill="#dd3f31"></path></svg>