<svg id="visual" viewBox="0 0 960 300" width="960" height="300" xmlns="http://www.w3.org/2000/svg" xmlns:xlink="http://www.w3.org/1999/xlink" version="1.1"><rect x="0" y="0" width="960" height="300" fill="#202731"></rect><path d="M0 122L22.8 120.3C45.7 118.7 91.3 115.3 137 114.8C182.7 114.3 228.3 116.7 274 111.8C319.7 107 365.3 95 411.2 91.5C457 88 503 93 548.8 98.2C594.7 103.3 640.3 108.7 686 106.5C731.7 104.3 777.3 94.7 823 95.2C868.7 95.7 914.3 106.3 937.2 111.7L960 117L960 0L937.2 0C914.3 0 868.7 0 823 0C777.3 0 731.7 0 686 0C640.3 0 594.7 0 548.8 0C503 0 457 0 411.2 0C365.3 0 319.7 0 274 0C228.3 0 182.7 0 137 0C91.3 0 45.7 0 22.8 0L0 0Z" fill="#ea86ae"></path><path d="M0 91L22.8 92.5C45.7 94 91.3 97 137 95C182.7 93 228.3 86 274 84.5C319.7 83 365.3 87 411.2 87.8C457 88.7 503 86.3 548.8 87C594.7 87.7 640.3 91.3 686 89C731.7 86.7 777.3 78.3 823 75C868.7 71.7 914.3 73.3 937.2 74.2L960 75L960 0L937.2 0C914.3 0 868.7 0 823 0C777.3 0 731.7 0 686 0C640.3 0 594.7 0 548.8 0C503 0 457 0 411.2 0C365.3 0 319.7 0 274 0C228.3 0 182.7 0 137 0C91.3 0 45.7 0 22.8 0L0 0Z" fill="#f172a0"></path><path d="M0 52L22.8 55C45.7 58 91.3 64 137 63.5C182.7 63 228.3 56 274 54.5C319.7 53 365.3 57 411.2 60.5C457 64 503 67 548.8 68.7C594.7 70.3 640.3 70.7 686 70.7C731.7 70.7 777.3 70.3 823 69C868.7 67.7 914.3 65.3 937.2 64.2L960 63L960 0L937.2 0C914.3 0 868.7 0 823 0C777.3 0 731.7 0 686 0C640.3 0 594.7 0 548.8 0C503 0 457 0 411.2 0C365.3 0 319.7 0 274 0C228.3 0 182.7 0 137 0C91.3 0 45.7 0 22.8 0L0 0Z" fill="#f75b8f"></path><path d="M0 49L22.8 48.2C45.7 47.3 91.3 45.7 137 43.7C182.7 41.7 228.3 39.3 274 37.2C319.7 35 365.3 33 411.2 33.3C457 33.7 503 36.3 548.8 39.8C594.7 43.3 640.3 47.7 686 48.8C731.7 50 777.3 48 823 47.3C868.7 46.7 914.3 47.3 937.2 47.7L960 48L960 0L937.2 0C914.3 0 868.7 0 823 0C777.3 0 731.7 0 686 0C640.3 0 594.7 0 548.8 0C503 0 457 0 411.2 0C365.3 0 319.7 0 274 0C228.3 0 182.7 0 137 0C91.3 0 45.7 0 22.8 0L0 0Z" fill="#fc3e7c"></path><path d="M0 25L22.8 23.7C45.7 22.3 91.3 19.7 137 18.5C182.7 17.3 228.3 17.7 274 18.3C319.7 19 365.3 20 411.2 21C457 22 503 23 548.8 24.2C594.7 25.3 640.3 26.7 686 27.3C731.7 28 777.3 28 823 26.8C868.7 25.7 914.3 23.3 937.2 22.2L960 21L960 0L937.2 0C914.3 0 868.7 0 823 0C777.3 0 731.7 0 686 0C640.3 0 594.7 0 548.8 0C503 0 457 0 411.2 0C365.3 0 319.7 0 274 0C228.3 0 182.7 0 137 0C91.3 0 45.7 0 22.8 0L0 0Z" fill="#ff0066"></path></svg>